<svg xmlns="http://www.w3.org/2000/svg" viewBox="1484 918 32 32"><defs><style>.a{fill:#fff;stroke:#e1e8ed;}.b{fill:#e1e8ed;fill-rule:evenodd;}.c{stroke:none;}.d{fill:none;}</style></defs><g transform="translate(786 -1108)"><g class="a" transform="translate(698 2026)"><circle class="c" cx="16" cy="16" r="16"/><circle class="d" cx="16" cy="16" r="15.5"/></g><path class="b" d="M13.036,16V10.177c0-1.18-.341-2.387-1.757-2.387S9.285,9,9.285,10.2V16H5.561V5.351H9.311V6.793a3.8,3.8,0,0,1,3.41-1.757c1.548,0,4.092.734,4.092,4.931V16ZM2.1,3.751A2,2,0,0,1,0,1.862,2,2,0,0,1,2.1,0,2,2,0,0,1,4.2,1.889,2,2,0,0,1,2.1,3.751ZM3.961,16H.21V5.351H3.961Z" transform="translate(706 2034)"/></g></svg>