<svg xmlns="http://www.w3.org/2000/svg" viewBox="1388 918 32 32"><defs><style>.a{fill:#fff;stroke:#e1e8ed;}.b{fill:#e1e8ed;fill-rule:evenodd;}.c{stroke:none;}.d{fill:none;}</style></defs><g transform="translate(786 -1108)"><g class="a" transform="translate(602 2026)"><circle class="c" cx="16" cy="16" r="16"/><circle class="d" cx="16" cy="16" r="15.5"/></g><path class="b" d="M110.883,2794a3.409,3.409,0,0,1,2.6,1.007,5.421,5.421,0,0,0,1.682-.555l.408-.218a3.211,3.211,0,0,1-1.065,1.505,1.576,1.576,0,0,1-.36.244h0a6.119,6.119,0,0,0,1.857-.488h0a5.225,5.225,0,0,1-1.113,1.248l-.5.4a9.154,9.154,0,0,1-6.583,9.146,10.067,10.067,0,0,1-4.645.188,12.108,12.108,0,0,1-1.93-.616,7.729,7.729,0,0,1-.93-.469l-.3-.151a5.55,5.55,0,0,0,1.05.039c.322-.051.64-.037.938-.1a6.809,6.809,0,0,0,1.97-.694,3.675,3.675,0,0,0,.89-.569,2.848,2.848,0,0,1-.977-.171,3.261,3.261,0,0,1-2.082-2.053c.322.035,1.25.117,1.465-.063a2.436,2.436,0,0,1-1.073-.42,3.071,3.071,0,0,1-1.545-2.747l.338.156a3.673,3.673,0,0,0,.688.188,1,1,0,0,0,.447.039h-.015c-.165-.188-.435-.312-.6-.516a3.225,3.225,0,0,1-.738-2.91,3.667,3.667,0,0,1,.353-.835h.015a1.971,1.971,0,0,0,.3.334,5.964,5.964,0,0,0,.977.914,9.761,9.761,0,0,0,4,1.9,6.394,6.394,0,0,0,1.473.188,2.915,2.915,0,0,1,.015-1.5,3.2,3.2,0,0,1,1.858-2.152,4.048,4.048,0,0,1,.727-.218Z" transform="translate(510 -757.997)"/></g></svg>