<svg xmlns="http://www.w3.org/2000/svg" viewBox="1436 918 32 32"><defs><style>.a{fill:#fff;stroke:#e1e8ed;}.b{fill:#e1e8ed;}.c{stroke:none;}.d{fill:none;}</style></defs><g transform="translate(786 -1108)"><g class="a" transform="translate(650 2026)"><circle class="c" cx="16" cy="16" r="16"/><circle class="d" cx="16" cy="16" r="15.5"/></g><g transform="translate(658 2034)"><path class="b" d="M11.234,0H4.767A4.772,4.772,0,0,0,0,4.767v6.467A4.771,4.771,0,0,0,4.767,16h6.467A4.771,4.771,0,0,0,16,11.234V4.767A4.771,4.771,0,0,0,11.234,0Zm3.157,11.234a3.157,3.157,0,0,1-3.157,3.157H4.767A3.157,3.157,0,0,1,1.61,11.234V4.767A3.157,3.157,0,0,1,4.767,1.61h6.467a3.157,3.157,0,0,1,3.157,3.157Z"/><path class="b" d="M137.139,133a4.138,4.138,0,1,0,4.137,4.139A4.143,4.143,0,0,0,137.139,133Zm0,6.667a2.529,2.529,0,1,1,2.529-2.529A2.529,2.529,0,0,1,137.139,139.667Z" transform="translate(-129.138 -129.138)"/><circle class="b" cx="0.992" cy="0.992" r="0.992" transform="translate(11.155 2.901)"/></g></g></svg>