<?xml version="1.0" encoding="utf-8"?>
<!-- Generator: Adobe Illustrator 16.0.0, SVG Export Plug-In . SVG Version: 6.00 Build 0)  -->
<!DOCTYPE svg PUBLIC "-//W3C//DTD SVG 1.1//EN" "http://www.w3.org/Graphics/SVG/1.1/DTD/svg11.dtd">
<svg version="1.1" id="Layer_1" xmlns="http://www.w3.org/2000/svg" xmlns:xlink="http://www.w3.org/1999/xlink" x="0px" y="0px"
	 width="196.75px" height="76.75px" viewBox="0 0 196.75 76.75" enable-background="new 0 0 196.75 76.75" xml:space="preserve">
<g>
	<g>
		<path fill="#FF5D5C" d="M97.179,34.489c0-1.667-0.764-2.832-1.876-3.666c-1.921-1.426-4.475-1.734-4.475-3.401
			c0-1.316,1.048-1.712,2.052-1.712c1.572,0,2.924,0.966,3.056,0.966c0.088,0,0.174-0.088,0.241-0.219l0.72-1.449
			c0.087-0.175,0.109-0.264,0.109-0.328c0-0.375-2.138-1.34-4.213-1.34c-2.531,0-4.8,1.317-4.8,4.478
			c0,1.821,0.741,2.701,1.897,3.402c2.227,1.36,4.454,1.558,4.454,3.511c0,1.362-0.742,2.021-1.965,2.021
			c-1.877,0-3.492-0.966-3.623-0.966c-0.088,0-0.197,0.088-0.241,0.219l-0.501,1.45c-0.044,0.13-0.109,0.284-0.109,0.351
			c0,0.351,2.335,1.316,4.561,1.316C95.215,39.12,97.179,37.276,97.179,34.489z M105.826,38.285c0-0.064-0.021-0.064-0.045-0.174
			l-0.438-1.801c-0.021-0.088-0.087-0.132-0.173-0.132c-0.307,0-0.854,0.417-1.727,0.417c-0.74,0-0.74-0.637-0.74-1.339v-5.312h2.16
			c0.262,0,0.326-0.021,0.393-0.329l0.284-1.295c0.021-0.088,0.021-0.131,0.021-0.174c0-0.243-0.174-0.243-0.369-0.243h-2.485
			v-3.072c0-0.263-0.021-0.375-0.222-0.375c-0.131,0-0.219,0.023-0.281,0.023l-1.924,0.263c-0.307,0.044-0.35,0.11-0.35,0.395v2.765
			h-1.55c-0.262,0-0.305,0.067-0.305,0.308v1.427c0,0.243,0.043,0.308,0.305,0.308h1.55v4.939c0,2.02,0,4.236,2.815,4.236
			C104.232,39.12,105.826,38.703,105.826,38.285z M110.542,39.12c1.724,0,2.75-0.768,3.339-1.295
			c0.241,0.878,0.415,1.295,0.699,1.295c0.087,0,0.195-0.022,0.327-0.065l1.657-0.548c0.15-0.045,0.242-0.133,0.242-0.243
			c0-0.503-0.416-0.328-0.416-3.423v-6.849c0-0.374-0.043-0.461-0.152-0.461c-0.088,0-0.305,0.066-0.371,0.066l-1.833,0.374
			c-0.263,0.065-0.415,0.088-0.415,0.395v7.771c-0.283,0.195-1.004,0.68-1.922,0.68c-1.111,0-1.221-1.01-1.221-1.845v-6.98
			c0-0.374-0.045-0.461-0.18-0.461c-0.062,0-0.279,0.066-0.35,0.066l-1.832,0.374c-0.266,0.065-0.415,0.088-0.415,0.395v7.552
			C107.704,38.572,109.34,39.12,110.542,39.12z M125.866,37.804c0.108,0.549,0.438,1.316,0.633,1.316
			c0.088,0,0.196-0.065,0.284-0.088l1.658-0.68c0.105-0.046,0.197-0.11,0.197-0.198c0-0.438-0.396-0.724-0.396-2.853V23.316
			c0-0.372-0.044-0.459-0.223-0.459c-0.043,0-0.236,0.064-0.305,0.064l-1.834,0.375c-0.263,0.064-0.414,0.064-0.414,0.394v4.5
			c-0.351-0.242-0.852-0.659-2.029-0.659c-2.707,0-4.188,2.086-4.188,6.234c0,3.337,1.242,5.355,3.729,5.355
			C124.557,39.12,125.518,38.133,125.866,37.804z M122.023,33.392c0-2.436,0.33-3.666,1.967-3.666c0.916,0,1.287,0.329,1.484,0.439
			v5.992c-0.268,0.285-0.638,0.769-1.615,0.769C122.439,36.925,122.023,35.872,122.023,33.392z M139.292,37.825
			c0-0.088-0.022-0.175-0.065-0.242l-0.545-1.315c-0.045-0.089-0.132-0.176-0.24-0.176c-0.305,0-1.197,0.725-2.771,0.725
			c-2.052,0-2.401-1.515-2.401-2.745h5.871c0.416,0,0.502-0.131,0.502-0.549c0-2.655-0.654-5.992-4.365-5.992
			c-2.924,0-4.776,2.415-4.776,5.905c0,4.038,2.008,5.685,4.892,5.685C137.109,39.12,139.292,38.396,139.292,37.825z
			 M135.124,29.572c1.506,0,1.569,1.559,1.569,2.459h-3.426C133.333,31.417,133.42,29.572,135.124,29.572z M141.957,38.44
			c0,0.241,0.044,0.307,0.307,0.307h2.16c0.264,0,0.305-0.065,0.305-0.307v-7.705c0.285-0.264,1.006-0.9,1.922-0.9
			c1.113,0,1.226,1.01,1.226,1.843v6.762c0,0.241,0.044,0.307,0.31,0.307h2.157c0.265,0,0.308-0.065,0.308-0.307v-7.705
			c0-2.656-1.639-3.206-2.836-3.206c-1.728,0-2.705,0.945-3.34,1.516c-0.238-1.033-0.414-1.516-0.699-1.516
			c-0.086,0-0.195,0.022-0.326,0.066l-1.658,0.55c-0.152,0.043-0.238,0.129-0.238,0.239c0,0.508,0.412,0.331,0.412,3.426v6.63
			H141.957z M157.5,39.12c1.484,0,3.078-0.417,3.078-0.835c0-0.064-0.021-0.064-0.045-0.174l-0.436-1.801
			c-0.023-0.088-0.092-0.132-0.178-0.132c-0.309,0-0.854,0.417-1.727,0.417c-0.74,0-0.74-0.637-0.74-1.339v-5.312h2.158
			c0.264,0,0.326-0.021,0.395-0.329l0.283-1.295c0.021-0.088,0.021-0.131,0.021-0.174c0-0.243-0.177-0.243-0.371-0.243h-2.485
			v-3.072c0-0.263-0.021-0.375-0.222-0.375c-0.131,0-0.219,0.023-0.282,0.023l-1.921,0.263c-0.307,0.044-0.353,0.11-0.353,0.395
			v2.765h-1.549c-0.262,0-0.305,0.067-0.305,0.308v1.427c0,0.243,0.043,0.308,0.305,0.308h1.549v4.939
			C154.684,36.904,154.684,39.12,157.5,39.12z M171.078,36.113h-5.26V24.172c0-0.395-0.088-0.459-0.459-0.459h-2.029
			c-0.371,0-0.459,0.064-0.459,0.459v14.113c0,0.396,0.088,0.462,0.459,0.462h7.201c0.328,0,0.393-0.044,0.48-0.395l0.412-1.667
			c0.021-0.09,0.047-0.221,0.047-0.287C171.471,36.223,171.383,36.113,171.078,36.113z M175.771,27.903h-4.146
			c-0.262,0-0.305,0.067-0.305,0.308v1.427c0,0.243,0.043,0.308,0.305,0.308h1.68v8.495c0,0.241,0.045,0.307,0.307,0.307h2.16
			c0.268,0,0.311-0.065,0.311-0.307v-10.23C176.078,27.97,176.035,27.903,175.771,27.903z M174.682,22.856
			c-1.004,0-1.812,0.79-1.812,1.799c0,1.011,0.81,1.822,1.812,1.822c0.98,0,1.789-0.811,1.789-1.822
			C176.471,23.646,175.662,22.856,174.682,22.856z M184.047,22.856c-2.619,0-3.492,1.733-3.492,4.147v0.899h-1.551
			c-0.371,0-0.457,0.067-0.457,0.462v1.119c0,0.396,0.086,0.461,0.457,0.461h1.551v8.34c0,0.396,0.086,0.462,0.459,0.462h1.854
			c0.37,0,0.459-0.065,0.459-0.462v-8.34h2.096c0.22,0,0.349-0.021,0.414-0.308l0.308-1.295c0.021-0.086,0.043-0.131,0.043-0.219
			c0-0.175-0.176-0.22-0.371-0.22h-2.485v-0.899c0-1.054,0.045-1.778,1.224-1.778c0.827,0,1.286,0.374,1.526,0.374
			c0.088,0,0.174-0.131,0.194-0.22l0.394-1.536c0.021-0.066,0.045-0.131,0.045-0.198C186.709,23.207,185.027,22.856,184.047,22.856z
			 M195.834,33.522c0-2.655-0.656-5.992-4.365-5.992c-2.924,0-4.781,2.415-4.781,5.905c0,4.038,2.01,5.685,4.895,5.685
			c1.729,0,3.902-0.724,3.902-1.295c0-0.088-0.021-0.175-0.062-0.242l-0.547-1.315c-0.043-0.089-0.131-0.176-0.239-0.176
			c-0.306,0-1.197,0.725-2.771,0.725c-2.054,0-2.399-1.515-2.399-2.745h5.871C195.748,34.071,195.834,33.94,195.834,33.522z
			 M189.461,32.031c0.066-0.614,0.152-2.459,1.855-2.459c1.506,0,1.57,1.559,1.57,2.459H189.461z M98.838,43.838h-1.592
			c-0.372,0-0.459,0.064-0.459,0.46v6.958c0,0.615,0.065,2.151,0.065,2.854h-0.043c-0.263-0.896-0.677-2.02-1.288-3.183
			l-3.602-6.805c-0.131-0.241-0.174-0.284-0.502-0.284h-1.79c-0.371,0-0.458,0.064-0.458,0.46v14.113c0,0.396,0.087,0.46,0.458,0.46
			h1.594c0.37,0,0.458-0.064,0.458-0.46V50.51c0-1.01-0.066-2.129-0.066-2.414h0.045c0.218,0.987,0.588,1.756,1.243,2.986
			l3.995,7.482c0.132,0.264,0.196,0.307,0.502,0.307h1.44c0.393,0,0.459-0.064,0.459-0.46V44.298
			C99.297,43.902,99.209,43.838,98.838,43.838z M106.284,47.654c-2.925,0-4.779,2.416-4.779,5.906c0,4.039,2.009,5.686,4.888,5.686
			c1.729,0,3.908-0.725,3.908-1.295c0-0.09-0.021-0.176-0.064-0.242l-0.547-1.316c-0.043-0.088-0.131-0.176-0.235-0.176
			c-0.31,0-1.201,0.725-2.771,0.725c-2.055,0-2.399-1.514-2.399-2.74h5.868c0.416,0,0.504-0.135,0.504-0.553
			C110.65,50.993,109.995,47.654,106.284,47.654z M104.277,52.156c0.062-0.616,0.147-2.459,1.854-2.459
			c1.506,0,1.571,1.559,1.571,2.459H104.277z M119.448,56.436c-0.021-0.088-0.089-0.131-0.175-0.131
			c-0.31,0-0.854,0.416-1.729,0.416c-0.738,0-0.738-0.637-0.738-1.339V50.07h2.157c0.267,0,0.327-0.021,0.396-0.329l0.285-1.296
			c0.021-0.088,0.021-0.131,0.021-0.174c0-0.242-0.175-0.242-0.372-0.242h-2.486v-3.073c0-0.263-0.021-0.372-0.22-0.372
			c-0.131,0-0.218,0.021-0.282,0.021l-1.922,0.264c-0.306,0.043-0.349,0.109-0.349,0.395v2.767h-1.552
			c-0.262,0-0.307,0.065-0.307,0.311v1.429c0,0.239,0.045,0.309,0.307,0.309h1.552v4.938c0,2.021,0,4.236,2.813,4.236
			c1.482,0,3.076-0.418,3.076-0.835c0-0.063-0.021-0.063-0.045-0.177L119.448,56.436z M134.227,48.053l-1.48-0.197
			c-0.064,0-0.266-0.021-0.354-0.021c-0.175,0-0.262,0.224-0.306,0.438l-1.048,4.74c-0.264,1.207-0.372,2.479-0.48,3.709h-0.043
			c-0.021-0.943-0.24-2.479-0.414-3.426l-0.961-4.916c-0.062-0.326-0.088-0.354-0.416-0.354h-1.938
			c-0.327,0-0.353,0.021-0.415,0.354l-1.003,4.916c-0.179,0.812-0.396,2.594-0.415,3.426h-0.043
			c-0.109-1.207-0.266-2.636-0.48-3.709l-0.938-4.74c-0.046-0.219-0.134-0.438-0.283-0.438c-0.087,0-0.308,0.021-0.371,0.021
			l-1.639,0.197c-0.326,0.043-0.479,0.064-0.479,0.219c0.021,0.109,0.064,0.268,0.109,0.418l2.615,10.074
			c0.091,0.284,0.133,0.312,0.416,0.312h1.701c0.285,0,0.353-0.138,0.396-0.354l1.312-5.574c0.174-0.703,0.35-1.846,0.393-2.459
			h0.045c0.043,0.613,0.15,1.756,0.281,2.459l1.068,5.574c0.045,0.219,0.107,0.354,0.396,0.354h1.7c0.283,0,0.326-0.023,0.414-0.312
			l3.033-10.074c0.043-0.178,0.108-0.332,0.108-0.418C134.707,48.117,134.553,48.096,134.227,48.053z M140.494,47.654
			c-2.946,0-4.736,2.262-4.736,5.798c0,3.532,1.79,5.794,4.736,5.794c2.947,0,4.736-2.262,4.736-5.794
			C145.23,49.916,143.419,47.654,140.494,47.654z M140.494,57.051c-1.527,0-1.789-1.559-1.789-3.599
			c0-2.042,0.283-3.601,1.789-3.601c1.507,0,1.79,1.559,1.79,3.601C142.284,55.514,142.021,57.051,140.494,57.051z M152.283,47.654
			c-1.483,0-2.292,1.229-2.707,1.736c-0.109-0.746-0.547-1.736-0.807-1.736c-0.088,0-0.196,0.068-0.285,0.09l-1.657,0.681
			c-0.109,0.043-0.196,0.11-0.196,0.198c0,0.505,0.566,0.898,0.566,3.314v6.627c0,0.242,0.045,0.307,0.306,0.307h2.161
			c0.262,0,0.307-0.064,0.307-0.307v-7.33c0.283-0.312,0.98-1.055,1.658-1.055c0.502,0,0.895,0.238,1.025,0.238
			c0.088,0,0.152-0.132,0.176-0.193l0.676-1.848c0.021-0.044,0.043-0.133,0.043-0.22C153.549,47.875,152.917,47.654,152.283,47.654z
			 M160.098,52.792l3.537-3.468c0.109-0.109,0.195-0.196,0.195-0.284c0-0.091-0.021-0.155-0.109-0.242l-1.09-0.899
			c-0.176-0.133-0.264-0.243-0.393-0.243c-0.066,0-0.242,0.137-0.307,0.224l-4.191,4.26v-8.689c0-0.371-0.043-0.461-0.174-0.461
			c-0.064,0-0.283,0.045-0.354,0.062l-1.834,0.374c-0.262,0.043-0.414,0.089-0.414,0.396v14.75c0,0.242,0.047,0.308,0.309,0.308
			h2.162c0.262,0,0.305-0.063,0.305-0.308v-4.786h0.043l3.996,5.245c0.062,0.089,0.174,0.222,0.262,0.222s0.174-0.043,0.262-0.088
			l1.855-1.032c0.088-0.044,0.109-0.107,0.109-0.195s-0.088-0.222-0.197-0.33L160.098,52.792z M46.799,14.902
			c-1.515-0.313-4.553,13.214-5.365,16.506c0,0,3.105-6.209,4.758-10.198C47.417,18.256,47.955,15.142,46.799,14.902z M38.892,1.298
			C17.62,2.227,0.83,20.356,1.386,40.855c0.038,1.396,0.163,2.766,0.355,4.105C8.959,30.38,18.749,22.579,18.749,22.579
			s0.01-0.002,0.014-0.002c1.766-1.577,3.915-3.228,5.796-3.49c0.012-0.003,0.025-0.013,0.038-0.015
			c0.131-0.021,0.252-0.018,0.376-0.022c0.011,0,0.022-0.002,0.033-0.002c1.509-0.043,2.518,0.939,2.518,0.939
			c4.481,4.182-0.232,6.736-3.198,7.832c-0.047,0.021-2.622,1.191-2.625,4.007c0.006,1.862,0.647,3.719,2.375,5.393
			c2.816,3.021,4.547,6.035,5.274,8.869c2.065-2.286,3.694-4.562,4.482-5.922c-0.325-18.863,4.908-27.491,6.509-29.985
			c2.298-3.58,7.108-5.271,9.53-3.266c3.179,2.633,1.714,9.94-0.464,14.615c-2.562,5.496-4.883,10.591-8.911,17.202
			c-0.321,1.968-1.17,7.717-0.818,11.381c0.074,0.467,0.156,0.963,0.246,1.488c0.274,1.057,0.742,1.35,1.488,1.332
			c1.104-0.23,2.677-1.636,4.171-6.146c1.397-4.906,4.469-15.847,4.703-16.583c0.233-0.737,1.369-5.126,5.062-3.777
			c2.72,0.994,3.048,4.111,2.108,6.87c-0.828,2.431-2.284,8.229-2.724,11.021c-0.06,0.38,0.035,0.695,0.293,0.267
			c1.18-1.969,4.548-7.561,5.543-8.847c1.211-1.565,3.527-2.75,5.822-1.529s2.948,4.379,1.81,7.536
			c-0.968,2.681-1.924,5.842-2.529,8.833c-0.154,0.76-0.303,1.574-0.442,2.38c-0.583,4.608,1.852,2.354,1.852,2.354
			c5.603-6.547,9.452-13.569,11.34-17.539c-0.002-0.095,0.003-0.187,0-0.279C77.863,17.004,60.166,0.372,38.892,1.298z
			 M61.697,60.162c0,0-0.001-0.004-0.002-0.006c-5.207-0.664-5.863-3.53-5.664-5.639c0.245-2.586,0.675-5.701,1.766-8.981
			c0.098-0.296,0.098-0.537-0.243,0.01c-1.291,2.063-3.725,6.604-4.972,11.435c0,0-1.156,4.412-6.007,2.182
			c-1.744-0.989-2.324-3.491-2.301-3.771c-2.09,3.459-4.36,4.305-4.36,4.305c-0.575,0.322-1.283,0.457-2.118,0.107
			c-2.45-1.021-3.707-10.848-3.761-12.386c-1.498,2.888-2.64,6.411-7.284,10.644c0,0-8.578,7.651-18.622-4.933
			c0,0-2.24-3.349,1.76-2.024c0.082,0.021,0.247,0.084,0.473,0.166c9.729,3.035,9.665-1.983,9.633-3.162
			c-0.257-6.541-8.923-10.717-4.975-18.246c-4.732,5.273-7.397,7.93-12.99,16.822c3.404,17.461,19.687,29.686,38.884,28.846
			C61.142,74.65,77.304,59.596,78.368,40.5c-2.438,6.755-7.833,14.705-9.648,17.021C65.963,61.165,61.697,60.162,61.697,60.162z"/>
	</g>
</g>
</svg>
